<svg width="512" height="512" viewBox="0 0 512 512" fill="none" xmlns="http://www.w3.org/2000/svg">
<path d="M149.338 207.012C145.354 204.034 141.359 202.546 137.375 202.546H119.468V309.814H137.386C141.37 309.814 145.364 308.325 149.348 305.347C153.332 302.37 155.324 297.903 155.324 291.938V220.422C155.313 214.467 153.311 209.99 149.338 207.012V207.012ZM440.924 26H71.0759C46.2277 26 26.0616 46.1147 26 70.9732V441.027C26.0616 465.885 46.2277 486 71.0759 486H440.924C465.783 486 485.938 465.885 486 441.027V70.9732C485.938 46.1147 465.772 26 440.924 26V26ZM184.33 292.133C184.33 311.446 172.409 340.71 134.675 340.648H87.0321V170.756H135.681C172.071 170.756 184.31 199.979 184.32 219.303L184.33 292.133ZM287.707 201.098H233V240.547H266.442V270.909H233V310.348H287.717V340.71H223.872C212.413 341.008 202.884 331.951 202.597 320.492V192.031C202.32 180.583 211.386 171.075 222.835 170.787H287.717L287.707 201.098ZM394.123 319.476C380.57 351.05 356.286 344.766 345.412 319.476L305.85 170.797H339.293L369.799 287.563L400.161 170.797H433.613L394.123 319.476V319.476Z" fill="white"/>
</svg>
