<?xml version="1.0" standalone="no"?>
<!DOCTYPE svg PUBLIC "-//W3C//DTD SVG 20010904//EN"
 "http://www.w3.org/TR/2001/REC-SVG-20010904/DTD/svg10.dtd">
<svg version="1.0" xmlns="http://www.w3.org/2000/svg"
 width="800.000000pt" height="533.000000pt" viewBox="0 0 800.000000 533.000000"
 preserveAspectRatio="xMidYMid meet">

<g transform="translate(0.000000,533.000000) scale(0.100000,-0.100000)"
fill="#000000" stroke="none">
<path d="M2524 5065 c-3 -8 -12 -15 -18 -15 -15 0 -46 -62 -46 -91 0 -11 7
-31 16 -44 22 -33 28 -130 12 -184 l-13 -43 -39 36 c-78 71 -86 38 -22 -91 24
-48 46 -101 50 -116 4 -16 17 -39 30 -52 19 -19 31 -22 62 -18 31 4 44 0 64
-17 24 -21 25 -25 26 -173 1 -116 -2 -154 -12 -165 -8 -7 -14 -26 -14 -41 0
-15 -13 -48 -30 -74 -39 -61 -68 -69 -131 -34 -54 31 -87 34 -131 11 -21 -11
-46 -15 -76 -11 -59 6 -87 -6 -143 -65 -52 -55 -60 -56 -184 -32 -89 17 -264
34 -281 27 -9 -3 -9 -12 -1 -33 6 -16 8 -33 3 -37 -11 -11 -375 -4 -414 8 -59
19 -74 80 -28 119 28 22 19 55 -19 73 -81 39 -125 9 -89 -59 18 -33 18 -34 -2
-61 -12 -16 -33 -29 -49 -31 -26 -3 -207 31 -340 65 -33 9 -87 19 -120 24
-103 15 -165 30 -165 39 0 28 -117 52 -164 34 -18 -7 -22 -49 -6 -59 16 -10
12 -82 -6 -99 -25 -25 -106 -21 -164 9 -27 14 -56 25 -65 25 -13 0 -15 -204
-15 -1945 l0 -1946 721 1 c396 1 719 3 717 5 -5 6 -120 46 -188 66 -71 21
-120 25 -120 9 0 -5 -11 -12 -25 -16 -14 -3 -25 -11 -25 -16 0 -6 -9 -8 -20
-5 -11 3 -20 1 -20 -4 0 -5 9 -9 20 -9 11 0 20 -5 20 -11 0 -6 -7 -8 -16 -5
-9 3 -27 6 -40 6 -13 0 -23 3 -23 8 4 22 -3 32 -22 29 -44 -4 -30 23 25 50 69
33 74 50 14 44 -10 -1 -18 3 -18 9 0 6 5 8 10 5 13 -8 42 58 35 78 -3 7 6 26
20 41 14 15 22 32 19 38 -5 7 -2 8 6 3 10 -6 12 -4 7 8 -4 10 3 28 17 44 12
16 48 66 79 113 31 47 63 94 70 105 8 11 31 47 52 80 22 33 72 101 112 152 40
50 101 136 134 190 34 54 72 112 85 128 27 36 120 186 146 235 10 19 27 46 38
60 14 17 22 47 27 93 3 38 9 63 13 56 5 -6 6 9 3 34 -5 46 -5 47 86 156 90
107 161 204 161 217 0 4 17 32 37 63 21 31 38 61 39 66 0 6 2 17 2 26 2 14 20
40 75 109 7 8 25 40 40 70 33 64 89 144 207 296 47 60 103 135 125 167 42 62
171 222 262 325 111 125 243 207 354 221 105 13 113 15 120 24 3 4 26 1 50 -9
24 -9 59 -17 76 -18 18 -2 41 -11 52 -20 11 -10 25 -15 32 -10 8 4 10 3 5 -4
-8 -13 49 -52 77 -52 10 0 29 -7 42 -16 13 -8 43 -25 67 -37 24 -12 42 -28 40
-35 -1 -6 3 -12 8 -12 19 0 85 -63 218 -208 57 -62 92 -93 112 -97 43 -10 138
-69 188 -118 49 -47 68 -85 77 -154 8 -56 38 -162 71 -251 17 -44 24 -83 24
-133 0 -39 9 -110 21 -157 14 -58 20 -112 18 -166 -2 -56 2 -93 14 -121 14
-37 36 -144 41 -205 3 -38 55 -196 89 -275 17 -38 48 -94 69 -124 64 -91 76
-161 66 -388 -2 -44 -12 -42 -26 5 -7 21 -21 47 -32 57 -11 10 -20 26 -20 35
0 24 -58 229 -75 267 -8 17 -15 38 -15 46 0 23 -31 141 -40 152 -4 6 -13 26
-18 45 -6 19 -19 59 -30 88 -19 48 -19 53 -4 69 15 15 6 15 -123 8 -263 -14
-285 -14 -285 -6 0 5 9 11 19 14 17 4 18 8 7 41 -6 20 -19 39 -29 42 -25 8
-17 24 24 46 41 22 41 34 -6 136 -19 40 -30 70 -24 67 10 -7 13 8 2 18 -6 6
-11 34 -14 77 -1 25 -50 204 -60 222 -5 10 -9 28 -9 40 0 12 -4 35 -10 52 -31
97 -59 210 -54 215 10 10 63 -62 80 -109 45 -124 67 -178 84 -210 11 -19 29
-55 40 -80 12 -25 32 -58 44 -75 13 -16 26 -40 30 -53 4 -12 33 -40 64 -61 31
-21 86 -69 120 -106 35 -36 66 -64 68 -62 9 9 -38 101 -110 215 -98 157 -160
283 -179 363 -6 22 -3 28 14 32 26 7 16 27 -13 27 -20 0 -20 1 -4 19 16 17 16
19 -1 25 -13 5 -14 9 -5 15 9 6 3 15 -22 34 -19 15 -38 36 -41 47 -3 11 -17
23 -31 26 -17 4 -24 13 -24 29 0 16 -8 26 -28 33 -16 5 -43 28 -61 50 l-32 41
28 3 c27 4 27 4 -8 12 -47 10 -124 -24 -185 -82 -8 -8 -14 -9 -14 -3 0 11 40
51 51 51 14 0 16 60 1 72 -12 10 -11 14 5 26 16 13 15 13 -14 7 -29 -6 -32 -4
-27 12 5 15 4 15 -5 3 -6 -8 -9 -28 -7 -45 2 -16 1 -22 -1 -12 -5 20 -39 23
-46 5 -3 -8 -6 -7 -6 4 -1 9 -10 20 -21 23 -21 7 -26 20 -11 29 5 4 11 0 14
-6 2 -7 8 -10 12 -5 14 12 -4 21 -40 19 -27 -2 -33 1 -29 13 4 10 0 15 -14 15
-12 0 -24 5 -27 10 -10 16 -21 11 -33 -15 -6 -14 -16 -25 -22 -25 -5 0 -12 11
-16 25 -7 28 -14 31 -32 13 -9 -9 -15 -8 -27 8 -15 18 -16 17 -10 -13 8 -42
-2 -74 -21 -66 -16 6 -85 -23 -96 -41 -4 -6 -27 -16 -50 -23 -24 -6 -35 -11
-25 -12 9 -1 17 -6 17 -11 0 -6 3 -9 8 -8 18 5 49 -14 67 -42 19 -29 23 -30
67 -25 l46 7 9 -63 c8 -61 9 -63 42 -72 44 -11 76 -33 62 -42 -6 -3 -11 -3
-11 2 0 4 -11 9 -25 9 -14 1 -25 -2 -25 -7 0 -17 -18 -9 -23 11 -3 12 -14 20
-25 20 -15 0 -22 8 -24 27 -3 24 -8 28 -37 30 -19 1 -37 6 -41 12 -3 7 -30 14
-60 18 -45 5 -59 12 -97 51 -42 41 -47 43 -69 32 -20 -11 -27 -11 -44 5 -11
10 -20 25 -20 34 -1 21 -34 116 -47 133 -5 7 -13 21 -16 31 -9 24 -30 22 -22
-3 4 -14 1 -22 -10 -26 -14 -6 -13 -8 4 -21 22 -15 18 -45 -5 -36 -8 3 -12 8
-9 13 2 4 -7 5 -20 2 l-24 -4 21 -18 c19 -15 20 -20 9 -33 -7 -9 -10 -21 -7
-26 11 -18 -15 -23 -33 -7 -23 21 -93 22 -85 1 4 -9 0 -15 -10 -15 -9 0 -16 5
-16 10 0 6 -4 10 -10 10 -5 0 -10 -9 -10 -20 0 -11 -4 -20 -10 -20 -14 0 -12
-17 6 -56 9 -19 20 -32 24 -29 5 3 27 -23 51 -57 23 -35 48 -67 56 -71 11 -7
11 -12 2 -23 -9 -11 -8 -14 5 -14 9 0 19 -7 22 -15 4 -8 10 -12 15 -9 5 3 9
-2 9 -10 0 -12 56 -57 128 -101 9 -5 28 -20 42 -32 14 -13 37 -33 52 -46 15
-13 24 -28 20 -34 -4 -7 -35 11 -82 47 -70 55 -188 140 -283 203 -23 15 -75
43 -115 62 -40 19 -85 43 -99 55 -25 19 -35 21 -103 14 -41 -4 -84 -13 -96
-20 -11 -8 -23 -12 -26 -9 -3 3 -11 -2 -19 -11 -10 -13 -11 -18 -2 -21 7 -2 9
-11 6 -19 -8 -21 26 -18 65 6 41 25 53 25 75 0 10 -12 12 -20 5 -20 -6 0 -8
-3 -5 -7 4 -3 2 -12 -4 -19 -9 -11 -7 -15 7 -21 33 -12 47 -33 38 -52 -9 -16
-11 -16 -44 0 l-35 18 30 1 c30 2 30 2 4 9 -14 5 -35 14 -47 20 -33 18 -39 -9
-10 -53 21 -32 26 -35 58 -31 29 5 31 4 13 -4 -31 -14 -29 -31 2 -31 14 0 25
-4 25 -10 0 -5 6 -10 14 -10 23 0 121 -126 122 -157 l1 -27 -15 22 c-8 12 -21
22 -29 22 -10 0 -13 6 -9 16 3 8 2 13 -3 10 -5 -3 -27 11 -50 32 -68 62 -256
144 -295 129 -10 -4 -13 1 -10 16 2 12 2 16 -2 10 -8 -18 -27 -16 -20 2 3 8 1
15 -4 15 -6 0 -10 -13 -10 -29 0 -37 -10 -62 -21 -56 -4 3 -13 -5 -20 -17 -9
-19 -9 -21 2 -10 7 6 25 12 40 12 22 0 26 -4 22 -24 -3 -16 3 -30 18 -45 22
-21 22 -21 3 -36 -19 -14 -19 -14 3 -15 12 0 23 -4 25 -8 2 -5 18 -12 36 -15
24 -5 34 -3 39 9 4 12 8 11 20 -6 8 -12 12 -24 9 -28 -4 -3 -73 -7 -154 -8
-174 -2 -182 -3 -175 -21 3 -8 -3 -21 -13 -29 -11 -8 -14 -13 -9 -12 9 3 15
-4 15 -17 0 -3 -9 -1 -20 5 -17 9 -20 8 -20 -9 0 -11 6 -21 13 -24 9 -3 9 -9
-1 -26 -7 -12 -10 -26 -7 -31 11 -17 -7 -11 -21 8 -13 15 -13 15 -10 -8 3 -14
5 -26 5 -28 3 -11 41 22 41 36 0 9 5 24 10 32 6 9 8 -9 5 -55 -3 -54 0 -71 12
-80 13 -10 13 -16 3 -34 -6 -12 -9 -30 -5 -38 3 -9 0 -20 -7 -24 -23 -14 19
-47 60 -48 21 0 44 -1 52 -2 8 -1 29 1 45 5 18 4 23 3 12 -2 -10 -4 -18 -12
-18 -17 0 -6 -11 -9 -25 -8 -20 2 -23 -1 -15 -11 9 -10 7 -15 -6 -21 -17 -6
-17 -7 0 -16 13 -8 22 -7 33 1 11 10 14 10 14 0 0 -8 10 -9 30 -5 21 5 30 3
30 -6 0 -6 8 -18 18 -25 13 -11 8 -10 -20 1 -65 26 -76 15 -13 -14 71 -33 115
-45 115 -32 0 5 17 1 38 -9 20 -10 52 -21 70 -25 27 -5 32 -4 32 12 0 10 -13
30 -29 45 -16 15 -39 46 -51 69 -12 23 -32 51 -46 61 -14 11 -24 30 -24 44 0
13 -4 24 -9 24 -5 0 -16 15 -25 33 -9 17 -21 39 -26 47 -5 8 -18 37 -31 63
-12 27 -27 51 -35 54 -7 2 -10 12 -7 21 5 12 2 14 -11 9 -10 -4 -25 -7 -34 -7
-9 0 -26 -7 -36 -15 -19 -14 -19 -16 -3 -50 22 -45 21 -47 -5 -43 -18 2 -22 9
-20 30 2 22 -1 28 -17 28 -17 0 -19 6 -18 53 2 48 4 52 27 52 14 0 35 -6 47
-14 13 -7 33 -11 48 -7 14 4 25 2 25 -4 0 -5 5 -10 11 -10 5 0 7 5 4 10 -3 6
1 10 10 10 11 0 15 -5 11 -15 -3 -9 0 -15 10 -15 11 0 13 -6 9 -21 -5 -16 -4
-19 5 -14 9 6 10 3 3 -10 -8 -13 -4 -24 16 -47 61 -68 83 -88 96 -88 18 0 19
-5 3 -30 -10 -16 -7 -27 23 -72 20 -29 43 -65 53 -81 24 -39 79 -88 173 -154
45 -32 82 -61 83 -66 0 -4 -12 -4 -27 -1 -27 7 -27 6 12 -35 35 -37 110 -94
125 -96 14 -1 77 -31 88 -42 14 -13 76 -33 104 -33 10 0 26 -8 36 -18 9 -9 24
-16 32 -15 8 2 31 -7 50 -19 30 -19 32 -22 15 -26 -11 -2 -23 -10 -27 -17 -11
-18 -78 -2 -153 37 -33 17 -62 34 -65 37 -3 4 -23 15 -45 26 -35 17 -62 36
-149 105 -11 8 -40 34 -65 58 -65 61 -128 97 -166 93 -37 -3 -215 48 -275 79
-34 17 -44 19 -51 9 -6 -10 -12 -9 -28 5 -23 21 -37 16 -43 -19 -6 -28 1 -31
21 -12 11 10 12 9 6 -2 -7 -13 38 -60 59 -61 5 0 14 -7 20 -16 6 -8 27 -19 46
-24 41 -10 318 -113 345 -127 24 -14 3 -25 -27 -15 -40 16 -110 23 -103 12 3
-5 -1 -10 -9 -10 -9 0 -16 -6 -16 -12 1 -12 49 -38 98 -53 12 -3 22 -11 22
-16 0 -5 3 -8 8 -7 4 1 24 -6 46 -15 21 -9 42 -17 46 -17 15 0 222 -90 256
-111 92 -57 83 -76 -13 -28 -43 21 -85 39 -94 39 -8 0 -19 4 -25 10 -16 16
-203 80 -234 80 -40 0 -76 -17 -138 -67 -50 -40 -50 -59 -1 -32 31 16 94 15
112 -2 8 -9 38 -19 67 -22 52 -6 149 -52 157 -74 3 -7 11 -13 19 -13 8 0 14
-9 14 -20 0 -11 8 -23 18 -27 37 -13 44 -25 23 -40 -21 -14 -18 -43 4 -43 7 0
18 -13 23 -29 7 -20 19 -30 39 -34 49 -10 64 -77 16 -77 -7 0 -15 -11 -19 -25
-8 -31 -14 -31 -39 0 -11 14 -32 40 -47 57 -15 18 -28 43 -28 56 0 12 -6 22
-14 22 -8 0 -22 7 -30 16 -28 27 -36 6 -15 -44 25 -60 82 -175 90 -182 15 -13
16 -40 3 -51 -12 -9 -20 -9 -40 2 -14 7 -39 12 -56 11 -23 -2 -31 2 -35 18 -4
13 -29 31 -71 51 -59 27 -68 29 -78 15 -6 -9 -21 -16 -33 -16 -11 0 -21 -4
-21 -10 0 -5 10 -10 23 -10 12 0 36 -11 52 -25 104 -88 160 -126 181 -121 22
6 84 -21 84 -36 0 -5 7 -8 15 -8 27 0 97 -50 91 -66 -3 -7 -2 -13 2 -12 4 1
17 -3 29 -10 12 -6 32 -12 45 -12 39 1 88 -12 88 -22 0 -6 9 -8 20 -5 22 6 25
0 11 -22 -5 -7 -14 -11 -20 -7 -6 4 -9 1 -5 -7 7 -20 -24 -49 -46 -42 -22 7
-49 -30 -27 -38 9 -3 9 -7 0 -17 -9 -10 -16 -6 -33 24 -12 20 -26 34 -30 31
-5 -3 -20 5 -34 18 -40 37 -156 64 -156 36 0 -21 40 -68 61 -71 23 -3 42 -34
58 -96 l12 -42 1837 1 c1016 0 1828 4 1817 9 -11 5 -28 11 -38 14 -10 3 -16
10 -12 15 3 6 35 -1 75 -15 l70 -24 620 0 620 0 0 701 c0 634 -2 701 -16 695
-21 -8 -40 14 -38 45 2 21 -4 28 -34 38 -39 14 -184 77 -266 117 -29 14 -42
24 -30 24 10 0 30 3 43 7 14 3 22 2 19 -3 -4 -5 14 -9 38 -9 29 0 44 4 44 13
0 17 12 15 115 -13 104 -29 106 -29 81 -10 -18 14 -19 15 -2 15 11 0 16 5 13
13 -3 7 4 19 14 25 17 11 19 26 19 172 0 88 -3 160 -8 160 -4 0 -23 -13 -42
-28 -19 -16 -91 -66 -160 -112 -157 -104 -173 -119 -158 -137 8 -10 5 -20 -13
-41 -36 -41 -41 -42 -85 -36 -25 3 -51 1 -64 -6 -12 -6 -29 -9 -38 -5 -16 6
-16 7 0 19 15 11 14 14 -12 31 l-28 19 37 19 c20 11 40 26 44 33 4 8 23 14 41
14 45 0 112 31 161 74 22 20 46 36 53 36 17 0 51 20 83 48 14 12 49 30 77 41
29 10 61 27 72 38 10 12 24 23 30 25 7 2 10 44 8 125 l-3 121 -91 -52 c-50
-29 -98 -55 -106 -58 -8 -3 -49 -29 -92 -57 -43 -28 -85 -51 -92 -51 -8 0 -14
-4 -14 -10 0 -5 -5 -10 -11 -10 -9 0 -72 -43 -89 -60 -3 -3 -27 -14 -55 -25
-57 -23 -117 -97 -96 -118 6 -6 11 -35 11 -64 0 -52 -1 -53 -29 -53 -16 0 -31
-6 -34 -14 -5 -12 -13 -13 -37 -6 -18 5 -38 14 -46 21 -25 20 -74 99 -74 118
0 33 22 81 36 81 8 0 27 11 42 25 15 14 61 43 102 66 41 22 98 57 127 77 29
20 65 44 80 53 15 9 64 39 109 66 44 27 105 63 135 80 29 16 93 52 141 79 l88
49 0 83 0 82 -44 0 c-25 0 -48 5 -51 10 -7 11 5 14 58 11 l37 -3 0 381 0 381
-59 0 c-33 0 -63 -4 -66 -10 -3 -5 -33 -10 -65 -10 -52 0 -61 -3 -80 -27 -21
-27 -26 -28 -105 -28 -76 1 -87 3 -136 34 -52 32 -57 33 -129 27 -59 -5 -88
-2 -138 14 -83 26 -104 25 -132 -5 -29 -31 -63 -32 -87 -2 -27 35 -113 45
-156 19 -26 -16 -58 -21 -169 -25 l-138 -5 -22 25 c-13 14 -32 35 -44 47 -12
11 -26 31 -33 44 -10 19 -19 22 -80 22 -54 0 -71 -4 -85 -19 -16 -18 -33 -19
-229 -19 -182 1 -217 4 -253 19 -40 18 -42 18 -96 -1 -41 -14 -96 -20 -229
-26 -155 -6 -178 -5 -208 11 -32 16 -36 16 -72 0 -28 -13 -51 -16 -88 -11 -35
5 -59 2 -78 -7 -16 -8 -49 -18 -75 -21 -38 -6 -48 -11 -48 -26 0 -10 -4 -22
-10 -25 -6 -3 -10 -15 -10 -26 0 -10 -4 -19 -9 -19 -5 0 -12 -13 -16 -29 -3
-16 -20 -44 -36 -62 -17 -19 -40 -55 -51 -81 -11 -27 -24 -48 -28 -48 -10 0
-31 -50 -25 -60 3 -5 1 -10 -5 -12 -7 -2 -7 -14 -1 -35 10 -33 5 -73 -9 -73
-4 0 -10 18 -13 40 -3 22 -12 47 -21 55 -21 22 -20 35 2 35 20 0 33 22 53 85
9 30 9 40 0 43 -9 3 -9 7 0 18 15 18 29 9 29 -19 0 -25 10 -16 39 36 12 21 19
42 16 48 -4 5 -1 9 5 9 18 0 63 108 58 141 -4 24 -1 29 16 29 18 1 19 2 5 10
-9 5 -20 26 -23 46 -4 19 -10 43 -13 51 -4 10 -2 14 4 10 10 -6 23 29 28 77 1
10 8 22 16 27 7 4 10 11 6 15 -11 12 14 34 38 34 23 0 75 -35 75 -51 0 -5 -27
-9 -59 -9 -33 0 -63 -4 -66 -10 -4 -6 17 -10 54 -10 34 0 61 -3 61 -8 0 -7
-85 -62 -95 -62 -3 0 -5 10 -5 23 0 18 -2 19 -10 7 -5 -8 -10 -41 -10 -72 0
-56 1 -58 28 -59 16 -1 20 -3 10 -6 -20 -5 -24 -23 -5 -23 37 0 75 42 119 128
42 83 44 92 29 105 -27 25 -95 57 -118 57 -30 0 -35 12 -17 38 12 17 25 22 59
22 67 0 264 29 301 45 49 20 69 56 55 98 -38 115 -215 207 -397 207 -38 0 -42
2 -48 31 -3 17 -16 52 -28 77 -11 26 -22 50 -22 54 -1 3 -5 10 -10 15 -5 5 -6
3 -2 -4 11 -19 -7 -15 -25 5 -18 21 -31 52 -22 52 3 0 12 -8 19 -17 7 -10 15
-15 18 -12 3 3 -8 25 -26 50 -92 129 -143 156 -354 189 -50 8 -95 8 -150 1
-44 -5 -106 -12 -139 -15 l-60 -6 -3 117 c-5 168 -22 169 -22 2 l0 -135 -37
-36 c-21 -19 -70 -56 -109 -81 -39 -25 -84 -59 -100 -75 -41 -41 -106 -155
-133 -232 -13 -38 -34 -74 -49 -87 -26 -22 -27 -27 -26 -113 1 -49 4 -104 8
-123 5 -29 3 -34 -22 -43 -24 -9 -33 -8 -56 11 -50 40 -66 74 -66 143 0 41 -6
71 -16 87 -35 53 -49 25 -61 -115 -2 -36 -9 -71 -15 -77 -15 -18 -63 -16 -79
3 -7 8 -31 25 -53 36 -50 25 -56 33 -56 78 0 34 -29 101 -55 129 -23 24 -63
-62 -76 -159 -5 -46 -14 -91 -20 -101 -17 -33 -52 -49 -104 -49 -59 0 -106 25
-135 72 -24 40 -25 73 -4 123 17 41 12 85 -10 85 -8 0 -25 13 -39 29 -26 31
-26 37 -29 339 -1 54 15 71 85 93 43 13 56 23 79 60 23 38 27 58 31 139 3 52
10 114 17 138 10 32 11 45 2 54 -7 7 -12 36 -12 65 0 41 -3 51 -14 47 -9 -3
-24 7 -37 25 -13 17 -26 31 -29 31 -4 0 -25 -16 -47 -35 -51 -43 -92 -48 -128
-15 -14 13 -25 30 -25 38 0 9 -6 12 -15 8 -9 -3 -24 5 -38 20 -12 14 -34 32
-50 40 -24 13 -28 13 -33 -1z m2151 -704 c3 -5 1 -12 -5 -16 -5 -3 -10 1 -10
9 0 18 6 21 15 7z m48 -15 c-4 -6 0 -6 9 2 21 17 45 6 50 -23 4 -21 2 -23 -13
-14 -10 5 -17 15 -15 22 1 6 1 9 -1 5 -7 -13 -43 -9 -44 5 0 9 -2 9 -6 -1 -2
-6 -9 -10 -13 -7 -16 10 1 33 21 28 11 -3 16 -10 12 -17z m150 -233 c-18 -2
-48 -2 -65 0 -18 2 -4 4 32 4 36 0 50 -2 33 -4z m-4410 -270 c-7 -2 -19 -2
-25 0 -7 3 -2 5 12 5 14 0 19 -2 13 -5z m405 -5 c20 -20 15 -76 -7 -88 -45
-24 -131 6 -131 45 0 40 107 74 138 43z m3959 -250 c-3 -8 -6 -5 -6 6 -1 11 2
17 5 13 3 -3 4 -12 1 -19z m200 -34 c2 -6 -3 -11 -12 -11 -8 0 -15 7 -15 15 0
15 22 12 27 -4z m-220 -260 c3 -33 2 -35 -12 -20 -10 10 -13 24 -9 41 8 33 16
26 21 -21z m-92 -65 c4 -11 4 -23 0 -27 -7 -7 -25 17 -25 36 0 20 18 14 25 -9z
m1501 -11 c93 -71 86 -148 -17 -182 -62 -20 -108 -7 -160 45 -32 32 -39 46
-39 77 0 59 45 90 129 91 35 1 53 -6 87 -31z m-411 -398 c42 -35 4 -82 -89
-114 -95 -31 -236 -13 -236 31 0 46 49 76 160 97 43 8 149 -1 165 -14z m-2125
-22 c0 -22 -17 -41 -29 -34 -19 12 -13 46 9 46 11 0 20 -6 20 -12z m-110 -18
c0 -5 -4 -10 -10 -10 -5 0 -10 5 -10 10 0 6 5 10 10 10 6 0 10 -4 10 -10z
m-2256 -15 c-1 -5 -14 -16 -30 -24 -16 -8 -35 -20 -42 -28 -17 -16 -39 -17
-44 -1 -3 8 -9 8 -19 2 -8 -5 -52 -9 -99 -10 -47 0 -103 -6 -126 -14 -23 -7
-52 -10 -68 -6 -24 6 -25 8 -11 22 10 10 42 18 93 21 42 3 86 10 97 16 51 27
251 45 249 22z m-591 -102 c-7 -2 -21 -2 -30 0 -10 3 -4 5 12 5 17 0 24 -2 18
-5z m2331 -28 c3 -9 0 -15 -10 -15 -30 0 -2 -20 29 -21 27 -2 28 -2 7 -6 -14
-2 -30 -11 -37 -20 -14 -18 -33 -9 -33 18 0 10 -7 19 -15 19 -27 0 -16 29 13
33 15 2 30 5 33 6 4 0 9 -6 13 -14z m672 -16 c3 -6 1 -16 -5 -22 -8 -8 -11 -8
-11 1 0 7 -7 12 -16 12 -8 0 -12 5 -9 10 8 13 32 13 41 -1z m1654 -12 c19 -8
49 -19 65 -24 41 -13 45 -48 11 -80 -27 -25 -121 -73 -144 -73 -7 0 -30 -9
-51 -20 -22 -10 -74 -31 -116 -46 l-77 -27 -91 23 c-160 38 -186 49 -193 77
-10 40 7 56 87 81 41 12 135 43 209 68 117 39 144 44 200 41 36 -2 81 -11 100
-20z m-1576 -11 c-10 -8 -21 -12 -24 -10 -5 6 21 24 34 24 6 0 1 -6 -10 -14z
m-1171 -313 c-7 -2 -19 -2 -25 0 -7 3 -2 5 12 5 14 0 19 -2 13 -5z m2427 1 c0
-13 -35 -33 -57 -34 -34 0 -28 16 10 28 41 13 47 14 47 6z m-2180 -34 c0 -5
-7 -10 -15 -10 -8 0 -15 5 -15 10 0 6 7 10 15 10 8 0 15 -4 15 -10z m536 -66
c15 -42 33 -78 41 -81 7 -3 13 -10 13 -17 0 -6 9 -28 20 -49 24 -44 24 -47 5
-47 -16 0 -84 136 -114 229 -13 41 -13 41 -2 41 5 0 21 -34 37 -76z m-609
-124 c-1 -22 -17 -28 -17 -7 0 12 9 27 16 27 2 0 2 -9 1 -20z m-271 -27 c4
-16 10 -30 13 -33 3 -3 22 -34 40 -70 19 -36 41 -71 48 -78 7 -8 20 -27 29
-43 26 -51 124 -159 144 -159 6 0 13 -7 16 -15 9 -22 66 -54 163 -91 55 -21
77 -33 60 -34 -47 0 -131 20 -176 42 -43 22 -170 151 -208 213 -11 17 -30 43
-42 58 -13 16 -36 54 -51 85 -15 30 -44 72 -64 93 -34 34 -36 39 -20 48 28 17
41 13 48 -16z m509 -33 c3 -5 1 -10 -4 -10 -6 0 -11 5 -11 10 0 6 2 10 4 10 3
0 8 -4 11 -10z m-838 -142 c-3 -8 -6 -5 -6 6 -1 11 2 17 5 13 3 -3 4 -12 1
-19z m88 -90 c46 -21 23 -37 -32 -22 -25 7 -32 34 -8 34 8 0 26 -5 40 -12z
m-70 -28 c3 -5 -1 -10 -9 -10 -9 0 -16 5 -16 10 0 6 4 10 9 10 6 0 13 -4 16
-10z m26 -23 c-6 -8 -7 -17 -3 -22 4 -4 -2 -6 -12 -4 -26 5 -32 26 -9 32 32 8
36 7 24 -6z m1957 -4 c-4 -22 -22 -20 -26 1 -2 10 3 16 13 16 10 0 15 -7 13
-17z m3082 -87 c8 -7 23 -16 33 -19 9 -4 17 -16 17 -27 0 -11 -8 -24 -17 -28
-41 -17 -113 -68 -116 -82 -4 -15 -7 22 -9 94 0 27 5 42 17 48 15 9 15 11 -2
25 -16 13 -14 14 22 8 22 -4 47 -12 55 -19z m-4840 -86 c0 -5 -4 -10 -10 -10
-5 0 -10 5 -10 10 0 6 5 10 10 10 6 0 10 -4 10 -10z m1504 -138 c-6 -4 -14
-17 -18 -29 -6 -19 2 -28 63 -67 63 -41 112 -98 97 -113 -9 -10 -101 41 -142
79 -23 21 -45 34 -49 30 -13 -12 4 60 20 85 9 13 21 23 28 23 8 0 9 -2 1 -8z
m3955 -121 c-8 -31 -14 -86 -14 -123 0 -38 -3 -68 -7 -68 -5 0 -8 9 -8 20 0
11 -6 20 -12 20 -7 0 -23 3 -35 6 -17 5 -23 2 -23 -10 0 -23 -45 -21 -70 4
-11 11 -28 20 -37 20 -10 0 -25 5 -33 10 -11 8 -7 9 15 4 l30 -7 -26 21 c-17
14 -34 19 -49 15 -19 -5 -21 -3 -16 15 5 16 1 22 -21 30 -17 6 -21 11 -11 11
12 1 15 6 11 17 -7 18 10 15 82 -16 43 -18 136 -50 146 -50 4 0 10 25 14 55 5
44 12 59 38 81 39 33 44 21 26 -55z m-1469 29 c40 -12 67 -27 59 -34 -10 -11
-120 -35 -134 -29 -18 6 -20 44 -3 61 15 15 32 15 78 2z m-2660 -124 c0 -3 -4
-8 -10 -11 -5 -3 -10 -1 -10 4 0 6 5 11 10 11 6 0 10 -2 10 -4z m-615 -266 c3
-5 -1 -10 -10 -10 -9 0 -13 5 -10 10 3 6 8 10 10 10 2 0 7 -4 10 -10z m1688
-263 l32 -16 -35 4 c-19 2 -38 4 -41 4 -4 1 -5 11 -4 24 3 30 7 35 12 16 2 -9
18 -23 36 -32z m111 -38 c34 -12 70 -25 81 -29 11 -4 54 -20 95 -34 354 -122
463 -160 518 -177 34 -11 60 -24 57 -29 -4 -6 -13 -6 -23 -1 -9 5 -53 21 -97
36 -44 14 -88 31 -97 36 -10 5 -25 9 -33 9 -8 0 -23 4 -33 9 -23 13 -55 25
-67 26 -5 0 -15 3 -20 7 -23 14 -190 68 -212 68 -12 0 -23 4 -23 10 0 5 -7 7
-15 4 -8 -4 -15 -1 -15 5 0 6 -8 11 -17 11 -10 0 -31 7 -47 15 -15 8 -34 15
-40 15 -15 0 -95 39 -82 40 5 0 36 -9 70 -21z m-39 -29 c3 -6 -1 -7 -9 -4 -18
7 -21 14 -7 14 6 0 13 -4 16 -10z m840 -250 c18 -8 17 -9 -7 -9 -16 -1 -28 4
-28 9 0 12 8 12 35 0z m60 -20 c8 -13 -5 -13 -25 0 -13 8 -13 10 2 10 9 0 20
-4 23 -10z m-2747 -18 c2 -7 -3 -12 -12 -12 -9 0 -16 7 -16 16 0 17 22 14 28
-4z m2817 -7 l30 -15 -35 6 c-19 3 -39 10 -44 15 -15 14 15 10 49 -6z m147
-49 c165 -56 199 -68 194 -73 -4 -4 -270 83 -296 98 -28 16 -1 9 102 -25z
m248 -86 c18 -12 2 -12 -25 0 -13 6 -15 9 -5 9 8 0 22 -4 30 -9z m40 -20 c0
-5 -2 -10 -4 -10 -3 0 -8 5 -11 10 -3 6 -1 10 4 10 6 0 11 -4 11 -10z m120
-33 c71 -23 103 -37 98 -43 -6 -5 -122 30 -150 46 -10 5 -24 7 -33 4 -9 -4
-15 0 -15 9 0 17 0 17 100 -16z m147 -63 c-7 -7 -37 7 -37 17 0 6 9 5 21 -1
11 -7 19 -14 16 -16z"/>
<path d="M3230 3301 c-79 -6 -105 -15 -94 -33 4 -7 2 -8 -4 -4 -7 4 -20 2 -29
-4 -15 -10 -15 -11 -2 -6 10 2 33 -4 52 -14 19 -10 38 -16 41 -12 4 3 11 1 15
-7 11 -17 90 -34 105 -22 17 14 78 11 72 -4 -3 -10 30 -12 137 -11 120 1 147
-2 175 -17 33 -18 34 -18 65 3 20 13 24 19 11 16 -12 -4 -28 1 -41 14 -23 21
-79 37 -178 50 -33 4 -69 11 -79 16 -11 4 -17 4 -14 -2 3 -5 -16 -10 -42 -11
-37 -1 -48 2 -44 12 5 12 -49 48 -65 43 -3 -1 -40 -4 -81 -7z m-45 -21 c-27
-12 -43 -12 -25 0 8 5 22 9 30 9 10 0 8 -3 -5 -9z"/>
<path d="M3766 3155 c-3 -8 -1 -15 4 -15 6 0 10 -5 10 -11 0 -16 40 -49 58
-49 9 0 12 3 9 7 -4 3 -2 12 4 19 8 10 3 11 -20 8 -24 -4 -31 -1 -31 10 0 9
-4 16 -10 16 -5 0 -7 7 -4 15 4 8 2 15 -4 15 -5 0 -12 -7 -16 -15z"/>
<path d="M3192 3129 c5 -3 -28 -8 -75 -11 -60 -4 -98 -12 -134 -30 -46 -22
-49 -26 -37 -42 11 -16 17 -17 43 -6 16 6 38 9 49 6 22 -7 145 17 212 42 8 3
17 6 20 7 34 9 50 19 50 31 0 11 -14 14 -69 12 -38 -2 -65 -6 -59 -9z"/>
<path d="M3870 3060 c0 -5 5 -10 10 -10 6 0 10 5 10 10 0 6 -4 10 -10 10 -5 0
-10 -4 -10 -10z"/>
<path d="M3395 2920 c3 -5 8 -10 11 -10 2 0 4 5 4 10 0 6 -5 10 -11 10 -5 0
-7 -4 -4 -10z"/>
<path d="M3517 2889 c6 -21 11 -23 31 -11 9 6 6 12 -12 20 -21 9 -23 8 -19 -9z"/>
<path d="M3392 2849 l-24 -29 27 0 c20 0 26 -4 21 -15 -3 -10 1 -18 11 -22 15
-6 14 -7 -3 -15 -27 -12 27 -1 63 13 22 8 24 12 13 20 -13 8 -13 10 0 18 11 8
9 12 -13 20 -16 6 -35 11 -43 11 -8 0 -14 4 -14 10 0 5 6 7 14 4 8 -3 23 -1
33 5 15 8 11 10 -22 10 -32 0 -45 -6 -63 -30z"/>
<path d="M3575 2870 c3 -5 10 -10 16 -10 5 0 9 5 9 10 0 6 -7 10 -16 10 -8 0
-12 -4 -9 -10z"/>
<path d="M3260 2785 c0 -8 5 -15 10 -15 6 0 10 7 10 15 0 8 -4 15 -10 15 -5 0
-10 -7 -10 -15z"/>
<path d="M3305 2740 c-3 -5 -1 -10 4 -10 6 0 11 5 11 10 0 6 -2 10 -4 10 -3 0
-8 -4 -11 -10z"/>
<path d="M2595 2660 c27 -12 35 -12 35 0 0 6 -12 10 -27 9 -25 0 -26 -1 -8 -9z"/>
<path d="M4355 2650 c3 -5 8 -10 11 -10 2 0 4 5 4 10 0 6 -5 10 -11 10 -5 0
-7 -4 -4 -10z"/>
<path d="M2775 2610 c-11 -18 7 -60 26 -60 24 0 24 15 0 39 -11 11 -17 22 -13
25 3 3 3 6 -1 6 -3 0 -8 -4 -12 -10z"/>
<path d="M2430 2488 c-12 -22 -12 -22 6 -6 10 10 15 20 12 24 -4 3 -12 -5 -18
-18z"/>
<path d="M4276 2321 c-4 -6 2 -16 14 -23 11 -7 20 -18 20 -25 0 -7 7 -13 15
-13 8 0 15 5 15 10 0 6 -3 10 -8 10 -4 0 -12 10 -17 22 -11 25 -30 34 -39 19z"/>
<path d="M4470 2107 c0 -9 4 -18 9 -21 5 -4 8 1 7 9 -3 21 -16 31 -16 12z"/>
<path d="M2064 1858 c2 -7 -1 -21 -6 -30 -13 -27 -3 -21 17 8 9 15 12 24 7 20
-6 -3 -13 -1 -15 4 -3 6 -4 5 -3 -2z"/>
<path d="M4420 1740 c6 -11 15 -20 20 -20 17 0 11 15 -11 28 -19 12 -19 11 -9
-8z"/>
<path d="M1994 1565 c-8 -20 5 -105 15 -105 7 0 26 -34 30 -55 7 -33 112 -88
130 -69 31 33 10 70 -58 100 -22 10 -42 23 -43 28 0 6 -2 16 -2 23 -1 6 -12
23 -25 37 -13 13 -20 29 -17 34 3 6 -1 13 -9 16 -9 3 -18 -1 -21 -9z"/>
<path d="M2130 1536 c0 -2 7 -9 15 -16 12 -10 15 -10 15 4 0 9 -7 16 -15 16
-8 0 -15 -2 -15 -4z"/>
<path d="M2216 1460 c-19 -6 -19 -7 -1 -13 20 -8 29 -4 24 11 -2 5 -13 6 -23
2z"/>
<path d="M1833 1370 c1 -22 8 -45 14 -51 7 -7 8 -22 4 -38 -11 -38 -6 -120 7
-133 9 -9 16 -7 30 5 11 10 36 17 58 17 l39 1 -28 15 c-17 9 -26 21 -23 29 2
7 -2 19 -10 25 -17 15 -19 40 -3 40 8 0 8 4 -1 15 -6 8 -9 19 -5 25 3 5 2 10
-4 10 -6 0 -8 6 -5 13 6 16 -42 67 -62 67 -10 0 -13 -12 -11 -40z"/>
<path d="M2390 1310 c0 -14 38 -32 45 -21 3 6 -3 15 -14 20 -24 14 -31 14 -31
1z"/>
<path d="M2488 1263 c7 -3 16 -2 19 1 4 3 -2 6 -13 5 -11 0 -14 -3 -6 -6z"/>
<path d="M2538 1263 c6 -2 18 -2 25 0 6 3 1 5 -13 5 -14 0 -19 -2 -12 -5z"/>
<path d="M2095 1185 c-16 -8 -48 -14 -69 -15 l-40 0 34 -25 c40 -30 50 -44 43
-62 -3 -7 1 -13 9 -13 8 0 32 -13 54 -29 42 -30 88 -43 123 -34 17 4 19 8 9
20 -10 13 -7 14 25 8 33 -7 37 -5 31 11 -9 24 -44 64 -57 64 -6 0 -35 20 -65
45 -60 50 -56 49 -97 30z"/>
<path d="M2290 1101 c0 -6 9 -11 19 -11 11 0 28 -3 38 -6 12 -5 15 -4 8 4 -15
16 -65 26 -65 13z"/>
<path d="M1701 1070 c-24 -21 -22 -23 17 -20 12 1 22 -3 22 -9 0 -6 -11 -11
-24 -11 -24 0 -62 -38 -49 -49 3 -3 8 0 10 7 3 6 9 12 14 12 6 0 7 -4 4 -10
-8 -13 5 -13 60 2 25 7 45 18 45 25 0 7 -4 13 -9 13 -5 0 -11 10 -13 23 -2 15
-9 21 -20 19 -10 -2 -18 2 -18 8 0 15 -12 12 -39 -10z"/>
<path d="M1960 1025 c0 -10 7 -15 18 -13 21 4 19 22 -2 26 -10 2 -16 -3 -16
-13z"/>
<path d="M1565 990 c-3 -5 -1 -10 4 -10 6 0 11 5 11 10 0 6 -2 10 -4 10 -3 0
-8 -4 -11 -10z"/>
<path d="M1598 973 c-10 -2 -18 -9 -18 -14 0 -6 7 -6 18 -1 9 5 24 12 32 15
13 5 13 5 0 5 -8 0 -23 -2 -32 -5z"/>
<path d="M2000 922 c0 -6 9 -12 20 -15 11 -3 20 -3 20 -1 0 2 -9 8 -20 14 -11
6 -20 7 -20 2z"/>
<path d="M1550 910 c0 -6 -12 -23 -27 -37 -16 -15 -22 -23 -15 -19 20 12 14
-17 -13 -56 l-25 -37 35 6 c28 5 35 2 35 -11 0 -13 4 -15 16 -8 9 5 32 6 50 2
43 -10 49 0 22 36 -13 15 -23 44 -24 63 -1 20 -3 44 -3 54 -1 19 -51 25 -51 7z"/>
<path d="M2290 905 c0 -11 -11 -15 -39 -15 -22 0 -43 -5 -47 -11 -4 -6 -20 -8
-40 -4 -39 7 -47 -10 -9 -19 30 -8 34 -26 6 -26 -11 0 -23 -4 -26 -10 -10 -17
-25 -11 -25 10 0 11 -4 20 -9 20 -5 0 -12 8 -14 18 -4 16 -5 16 -6 0 -1 -22
-3 -22 -46 -4 -19 8 -35 11 -35 5 0 -5 6 -9 14 -9 8 0 16 -10 18 -22 2 -16 11
-24 28 -26 14 -2 29 -10 33 -18 11 -19 46 -18 54 2 3 9 9 12 12 7 10 -15 119
-55 130 -49 15 10 120 -20 141 -39 18 -17 131 -48 140 -39 7 7 -43 43 -52 38
-3 -2 -9 0 -12 5 -4 5 -2 12 4 16 14 9 1 28 -14 22 -7 -3 -19 -1 -27 4 -11 7
-10 9 6 10 11 0 1 6 -22 12 -55 15 -157 95 -143 112 5 6 7 15 3 18 -11 12 -23
8 -23 -8z"/>
<path d="M1833 790 c3 -13 0 -20 -8 -20 -8 0 -26 -11 -41 -25 l-26 -25 26 -10
c15 -5 52 -10 82 -10 31 0 54 -4 54 -11 0 -5 4 -8 9 -4 5 3 12 1 16 -5 8 -12
-15 -13 -35 0 -9 6 -19 5 -29 -3 -11 -9 -15 -9 -18 1 -3 6 -14 12 -25 12 -18
0 -19 -2 -7 -17 9 -11 10 -14 2 -9 -7 4 -21 2 -32 -4 -16 -8 -23 -6 -33 8 -7
10 -25 22 -40 25 -15 4 -33 14 -42 22 -8 8 -23 15 -33 15 -16 -1 -16 -2 2 -12
52 -30 58 -56 15 -64 -20 -4 -34 -16 -42 -35 -7 -15 -19 -27 -28 -27 -47 3
-80 -3 -80 -16 0 -9 -7 -12 -20 -9 -21 6 -25 -3 -11 -26 5 -7 14 -10 20 -7 6
4 11 2 11 -3 0 -6 7 -11 15 -11 8 0 15 5 15 10 0 15 26 12 43 -5 10 -10 26
-12 51 -8 24 4 36 2 36 -6 0 -7 -19 -11 -48 -11 -38 0 -53 -5 -71 -24 -21 -23
-22 -25 -4 -29 11 -3 6 -5 -13 -6 -20 -1 -34 -8 -40 -20 -8 -17 -13 -18 -56
-6 -27 6 -48 9 -48 5 0 -12 78 -40 93 -34 7 2 29 -2 48 -11 29 -14 30 -15 7
-10 -16 3 -28 1 -28 -5 0 -5 -21 -10 -47 -10 -43 -1 -46 -2 -30 -14 22 -17 12
-25 -26 -20 -18 2 -27 -1 -24 -9 2 -7 9 -12 14 -12 6 0 15 -3 19 -8 4 -4 2 -7
-4 -7 -6 0 -13 -8 -15 -18 -4 -14 -6 -13 -12 6 -7 21 -12 23 -49 17 -59 -9
-76 -15 -76 -26 0 -6 5 -7 10 -4 6 3 10 2 10 -4 0 -5 -4 -13 -10 -16 -12 -7
-14 -26 -2 -24 4 1 32 1 62 -1 41 -1 50 -4 35 -10 -17 -7 -17 -9 -2 -9 9 -1
17 -6 17 -12 0 -7 12 -10 30 -7 20 3 30 0 30 -9 0 -7 9 -13 21 -13 11 0 29 -5
39 -10 16 -8 18 -8 14 5 -5 13 -1 13 32 -1 49 -20 57 -28 20 -18 -19 4 -31 2
-37 -7 -7 -11 -22 -11 -96 3 -110 21 -243 33 -224 20 7 -6 11 -14 7 -20 -7
-11 26 -25 99 -42 27 -6 54 -15 60 -20 6 -5 43 -20 82 -34 69 -26 74 -26 364
-26 208 0 290 3 282 11 -9 9 -17 12 -53 18 -3 1 2 6 10 11 13 9 13 10 0 10
-49 2 -112 10 -121 15 -20 13 -8 27 21 23 24 -4 27 -2 19 9 -15 17 -5 17 30
-2 26 -13 41 -11 41 5 0 4 -16 24 -35 44 -20 21 -32 43 -29 51 5 11 -1 15 -19
15 -30 0 -44 17 -29 32 8 8 18 6 36 -6 14 -9 41 -16 61 -16 25 0 34 -4 29 -12
-4 -7 -3 -8 4 -4 19 11 3 32 -35 46 -53 19 -66 34 -42 49 18 10 18 13 5 27 -9
8 -28 21 -43 29 -19 10 -22 15 -10 15 9 0 17 5 17 10 0 17 29 11 39 -9 6 -10
24 -24 41 -29 34 -12 39 -3 10 18 -11 8 -20 18 -20 22 0 14 22 8 39 -10 27
-31 86 -58 62 -28 -18 21 1 27 33 10 16 -7 34 -14 41 -14 7 0 15 -3 17 -7 2
-5 17 -15 33 -23 17 -9 36 -28 43 -43 14 -29 56 -40 45 -11 -4 11 0 14 18 11
13 -2 18 -2 12 0 -7 3 -13 9 -13 14 0 5 -9 9 -20 9 -10 0 -23 6 -27 13 -9 13
-63 41 -100 52 -13 3 -23 11 -23 17 0 6 -10 8 -22 5 -13 -4 -39 3 -62 15 -23
11 -49 24 -58 29 -10 5 -27 9 -38 9 -12 0 -18 5 -15 10 3 6 -2 10 -13 10 -21
0 -43 22 -60 63 -15 35 -15 37 3 37 8 0 19 -9 25 -20 6 -11 18 -20 26 -20 10
0 14 -6 10 -15 -4 -11 2 -15 25 -15 17 0 39 5 50 11 15 7 24 7 34 -1 7 -6 38
-12 69 -13 42 -2 62 -9 81 -27 14 -13 28 -20 32 -17 3 4 -4 15 -15 26 -26 22
-28 31 -7 31 8 0 15 -4 15 -9 0 -11 29 -22 66 -26 14 -1 37 -13 51 -26 15 -13
33 -28 40 -34 7 -5 18 -15 25 -20 10 -9 138 -13 158 -6 3 1 -8 8 -25 15 -21 9
-32 10 -37 2 -5 -7 -8 -5 -8 5 0 9 -12 25 -27 35 -16 9 -32 23 -38 29 -40 46
-130 96 -177 100 -20 1 -44 10 -53 19 -24 24 -43 20 -38 -8 5 -23 4 -23 -49
-13 -63 12 -86 27 -40 27 45 0 40 13 -15 40 -27 13 -57 32 -67 42 -11 10 -26
18 -33 18 -7 0 -13 6 -13 13 0 8 -22 19 -50 27 -49 13 -60 23 -40 35 6 3 10 1
10 -4 0 -6 11 -11 24 -11 37 0 76 -18 76 -35 0 -16 60 -45 93 -45 11 0 35 -12
54 -26 36 -27 69 -28 67 -2 -2 17 18 15 44 -5 8 -6 12 -6 12 3 0 6 -18 19 -39
27 -23 9 -37 21 -35 28 5 12 -44 51 -60 47 -4 -2 -13 4 -20 11 -6 8 -25 17
-43 20 -26 5 -31 3 -26 -8 3 -8 0 -15 -6 -15 -6 0 -11 6 -11 14 0 20 -30 25
-119 19 -55 -4 -80 -2 -86 6 -12 20 3 25 39 14 19 -6 40 -7 47 -2 8 5 10 9 4
10 -95 11 -107 10 -102 -11z m287 -76 c0 -9 -5 -14 -12 -12 -18 6 -21 28 -4
28 9 0 16 -7 16 -16z m-43 -20 c-3 -3 -12 -4 -19 -1 -8 3 -5 6 6 6 11 1 17 -2
13 -5z m98 -14 c4 -7 -3 -8 -22 -4 -38 9 -42 14 -10 14 14 0 29 -5 32 -10z
m-219 -47 c-6 -6 -36 9 -36 18 0 5 9 4 20 -3 10 -7 18 -14 16 -15z m-229 -89
c-3 -3 -12 -4 -19 -1 -8 3 -5 6 6 6 11 1 17 -2 13 -5z m13 -34 c0 -5 -11 -10
-25 -10 -14 0 -25 5 -25 10 0 6 11 10 25 10 14 0 25 -4 25 -10z m-40 -41 c0
-5 -4 -9 -10 -9 -5 0 -10 7 -10 16 0 8 5 12 10 9 6 -3 10 -10 10 -16z m60 11
c0 -6 11 -8 25 -4 15 4 25 2 25 -5 0 -12 -29 -15 -54 -5 -18 7 -22 24 -6 24 6
0 10 -5 10 -10z m-138 -11 c-13 -5 -21 -13 -17 -19 3 -6 -1 -7 -9 -4 -31 12
-15 34 23 33 l26 0 -23 -10z m69 -102 c-10 -9 -11 -8 -5 6 3 10 9 15 12 12 3
-3 0 -11 -7 -18z m73 7 c3 -8 2 -12 -4 -9 -6 3 -10 10 -10 16 0 14 7 11 14 -7z
m133 0 c-3 -3 -12 -4 -19 -1 -8 3 -5 6 6 6 11 1 17 -2 13 -5z m70 -51 c13 -9
22 -18 19 -20 -8 -8 -86 30 -86 42 0 21 12 24 28 9 8 -9 26 -22 39 -31z m-26
-51 c-7 -2 -18 1 -23 6 -8 8 -4 9 13 5 13 -4 18 -8 10 -11z m-606 -32 c-3 -5
-10 -10 -16 -10 -5 0 -9 5 -9 10 0 6 7 10 16 10 8 0 12 -4 9 -10z m375 -80
c11 -6 33 -12 50 -14 17 -2 39 -11 48 -19 10 -9 35 -20 57 -25 41 -8 56 -26
30 -36 -15 -5 -91 36 -106 58 -4 5 -21 6 -39 2 -31 -6 -90 17 -90 36 0 11 28
10 50 -2z m233 -31 c7 0 1 -4 -11 -10 -26 -10 -46 -3 -36 12 3 6 13 8 21 5 8
-3 20 -6 26 -7z"/>
<path d="M2951 744 c0 -11 3 -14 6 -6 3 7 2 16 -1 19 -3 4 -6 -2 -5 -13z"/>
<path d="M1424 544 c5 -13 2 -15 -16 -11 -22 6 -22 6 2 -13 34 -27 40 -25 40
10 0 21 -5 30 -16 30 -11 0 -14 -5 -10 -16z"/>
<path d="M1269 538 c0 -7 -3 -22 -5 -33 -3 -11 -7 -35 -9 -54 -2 -19 -9 -37
-16 -41 -6 -5 -9 -15 -6 -23 4 -11 -4 -14 -41 -12 -56 2 -84 -4 -76 -16 3 -6
-4 -26 -15 -45 -12 -19 -15 -32 -9 -28 7 5 27 7 44 5 18 -1 35 2 38 7 3 6 23
8 45 5 22 -3 48 0 62 8 13 7 30 12 37 11 22 -5 13 8 -13 18 -27 10 -30 27 -25
148 1 34 -1 62 -4 62 -3 0 -6 -6 -7 -12z"/>
<path d="M1385 340 c3 -5 10 -10 16 -10 5 0 9 5 9 10 0 6 -7 10 -16 10 -8 0
-12 -4 -9 -10z"/>
<path d="M2040 300 c0 -5 5 -10 10 -10 6 0 10 5 10 10 0 6 -4 10 -10 10 -5 0
-10 -4 -10 -10z"/>
<path d="M2095 276 c11 -8 27 -16 35 -16 20 0 1 16 -30 25 -24 7 -24 7 -5 -9z"/>
<path d="M2410 230 c19 -13 30 -13 30 0 0 6 -10 10 -22 10 -19 0 -20 -2 -8
-10z"/>
<path d="M2820 182 c0 -5 9 -17 20 -27 11 -10 20 -13 20 -7 0 7 -4 12 -10 12
-5 0 -10 7 -10 15 0 8 -4 15 -10 15 -5 0 -10 -4 -10 -8z"/>
<path d="M2200 145 c0 -8 9 -15 20 -15 24 0 27 15 4 24 -22 9 -24 8 -24 -9z"/>
</g>
</svg>
